<svg width="582" height="579" viewBox="0 0 582 579" fill="none" xmlns="http://www.w3.org/2000/svg">
<path d="M291.732 0C132.185 0 2.39872 129.803 2.39872 289.333C2.39872 344.579 18.0294 398.177 47.6334 444.6L0.764059 567.725C-0.402607 570.777 0.38906 574.22 2.76406 576.46C4.29526 577.908 6.29005 578.668 8.30565 578.668C9.42023 578.668 10.5453 578.444 11.6078 577.965L126.305 526.632C175.018 560.694 232.122 578.668 291.732 578.668C451.278 578.668 581.065 448.865 581.065 289.334C581.06 129.801 451.273 0.000879924 291.718 0.000879924L291.732 0ZM291.732 535.987C239.601 535.987 189.716 519.856 147.479 489.336C141.536 485.05 134.526 482.779 127.208 482.779C122.297 482.779 117.536 483.794 113.072 485.794L70.3534 504.914L88.9734 455.961C92.937 445.591 91.6557 433.882 85.5515 424.633C59.0875 384.393 45.0982 337.617 45.0982 289.34C45.0982 223.574 70.7755 161.668 117.421 115.02C164.057 68.3743 225.973 42.6916 291.728 42.6916C427.728 42.6916 538.368 153.342 538.368 289.332C538.373 425.345 427.728 535.985 291.728 535.985L291.732 535.987Z" fill="white"/>
<path d="M186.477 299.791H264.789V271.791H186.477V237.556H271.795V209.015H153.555V370.228H275.727V341.244H186.476L186.477 299.791Z" fill="white"/>
<path d="M413.344 290.164C407.146 285.279 397.86 281.378 385.464 278.466L357.172 271.789C346.25 269.237 339.12 267.008 335.751 265.112C330.522 262.268 327.902 257.966 327.902 252.201C327.902 245.93 330.553 241.044 335.86 237.545C341.168 234.045 348.272 232.295 357.167 232.295C365.157 232.295 371.855 233.644 377.24 236.342C385.303 240.425 389.652 247.316 390.245 257.019H422.62C422.021 239.883 415.662 226.816 403.511 217.811C391.365 208.806 376.694 204.306 359.495 204.306C338.902 204.306 323.297 209.087 312.672 218.634C302.047 228.186 296.724 240.18 296.724 254.618C296.724 270.44 302.162 282.071 313.027 289.508C319.438 293.956 331.229 298.071 348.376 301.868L365.835 305.696C376.059 307.883 383.507 310.399 388.22 313.243C392.918 316.165 395.277 320.274 395.277 325.602C395.277 334.717 390.46 340.951 380.865 344.305C375.803 346.05 369.209 346.935 361.095 346.935C347.548 346.935 337.985 343.617 332.407 336.982C329.355 333.336 327.297 327.826 326.261 320.466H294.1C294.1 337.237 300.173 350.414 312.334 360.007C324.496 369.585 341.194 374.387 362.413 374.387C383.194 374.387 399.282 369.518 410.668 359.789C422.053 350.044 427.746 337.819 427.746 323.091C427.757 308.727 422.96 297.753 413.345 290.165L413.344 290.164Z" fill="white"/>
</svg>
